<?xml version="1.0" standalone="no"?>
<!DOCTYPE svg PUBLIC "-//W3C//DTD SVG 20010904//EN"
 "http://www.w3.org/TR/2001/REC-SVG-20010904/DTD/svg10.dtd">
<svg version="1.0" xmlns="http://www.w3.org/2000/svg"
 width="104.000000pt" height="104.000000pt" viewBox="0 0 104.000000 104.000000"
 preserveAspectRatio="xMidYMid meet">
<metadata>
Created by potrace 1.15, written by Peter Selinger 2001-2017
</metadata>
<g transform="translate(0.000000,104.000000) scale(0.100000,-0.100000)"
fill="#000000" stroke="none">
<path d="M205 1029 c-4 -6 14 -42 40 -81 l47 -70 45 6 c40 5 44 4 38 -12 -4
-9 -10 -38 -12 -64 -5 -44 -3 -50 30 -83 19 -19 43 -35 54 -35 12 -1 5 -8 -19
-21 -43 -22 -68 -63 -68 -110 0 -49 36 -115 78 -141 l36 -22 -33 -7 c-78 -16
-125 -82 -117 -165 10 -117 104 -224 196 -224 88 0 181 101 196 214 12 84 -27
147 -106 170 l-43 13 36 22 c41 25 77 91 77 140 0 47 -25 88 -68 110 -24 13
-31 20 -18 21 10 0 34 16 53 35 33 33 35 39 30 83 -2 26 -8 55 -12 64 -6 16
-2 17 38 12 l45 -6 47 70 c43 64 50 92 25 92 -5 0 -28 -27 -51 -61 -38 -57
-43 -61 -71 -55 -17 3 -36 6 -44 6 -7 0 -20 15 -29 34 -9 18 -27 44 -41 57
l-24 22 0 -34 c0 -33 -1 -34 -40 -34 -39 0 -40 1 -40 34 l0 34 -24 -22 c-14
-13 -32 -39 -41 -57 -9 -19 -22 -34 -29 -34 -8 0 -27 -3 -44 -6 -28 -6 -33 -2
-71 55 -42 61 -54 70 -66 50z"/>
<path d="M94 896 c-3 -9 14 -67 39 -128 50 -125 50 -125 148 -127 49 -1 59 2
72 23 15 23 15 24 -6 30 -12 3 -40 6 -62 6 -22 0 -46 4 -52 8 -7 5 -30 51 -51
103 -30 74 -43 95 -60 97 -13 2 -25 -3 -28 -12z"/>
<path d="M914 902 c-7 -4 -28 -47 -48 -96 -20 -50 -42 -93 -48 -98 -7 -4 -35
-8 -63 -8 -69 0 -82 -10 -60 -44 17 -25 20 -26 84 -20 36 4 73 10 81 15 8 4
35 57 59 118 35 90 41 114 31 126 -14 17 -20 18 -36 7z"/>
<path d="M50 514 c-42 -61 -49 -78 -39 -90 20 -24 37 -16 80 41 23 30 49 55
58 55 9 0 43 -7 76 -15 33 -8 70 -14 83 -15 19 0 22 4 16 28 -4 15 -8 29 -10
30 -5 6 -168 41 -191 42 -17 0 -35 -19 -73 -76z"/>
<path d="M820 574 c-116 -25 -110 -22 -110 -54 0 -35 1 -35 106 -14 l78 16 26
-33 c57 -74 65 -82 88 -75 32 10 28 28 -24 106 -53 79 -51 78 -164 54z"/>
<path d="M249 390 l-75 -50 -43 -151 c-34 -119 -40 -153 -30 -165 26 -32 46
-10 70 77 51 187 58 204 86 221 42 25 124 104 116 111 -16 17 -53 3 -124 -43z"/>
<path d="M668 434 c-8 -7 58 -75 112 -116 32 -23 38 -36 69 -149 19 -68 38
-132 43 -141 10 -21 46 -24 54 -5 3 8 -8 63 -25 123 -16 60 -34 127 -40 150
-9 35 -21 48 -81 88 -69 46 -118 64 -132 50z"/>
</g>
</svg>
